<svg xmlns="http://www.w3.org/2000/svg" width="16" height="16" viewBox="0 0 22 22" overflow="visible"><path transform="translate(6,6)" d="M8.5 9.5c.3.5.5 1.1.5 1.7 0 .6-.3 1.1-.7 1.6l-2.5 2.5c-.6.5-1.1.7-1.8.7s-1.3-.2-1.7-.7L.8 13.8C.2 13.3 0 12.7 0 12s.2-1.3.7-1.7l2.5-2.5C3.7 7.3 4.3 7 5 7c.5 0 1 .2 1.5.5l-1 1c-.2 0-.3-.1-.5-.1-.3 0-.5.1-.8.3l-2.5 2.5c-.2.2-.3.5-.3.7 0 .3.1.5.3.7l1.5 1.5c.2.2.5.3.7.3s.5-.1.7-.3l2.5-2.5c.2-.2.3-.5.3-.8 0-.2 0-.3-.1-.4l1.2-.9zM5 10l5-5c.1-.1.3-.2.5-.2s.4.1.5.2c.1.1.2.3.2.5s-.1.4-.2.5l-5 5c-.1.1-.3.2-.5.2s-.4-.1-.5-.2c-.1-.1-.2-.3-.2-.5s.1-.4.2-.5zm11-6c0 .7-.2 1.3-.7 1.7l-2.5 2.5c-.5.5-1.1.8-1.8.8-.5 0-1-.2-1.5-.5l1-1c.1.1.3.1.4.1.3 0 .5-.1.8-.3l2.5-2.5c.2-.2.3-.5.3-.7s-.1-.5-.3-.7l-1.5-1.5c-.2-.2-.5-.3-.7-.3s-.5.1-.7.3L8.8 4.2c-.3.3-.4.5-.4.8 0 .2 0 .3.1.4l-1 1C7.2 6 7 5.4 7 4.8s.3-1.1.7-1.6L10.2.7C10.8.2 11.3 0 12 0s1.3.2 1.7.7l1.5 1.5c.6.5.8 1.1.8 1.8z" fill="#999"/><path transform="scale(0.08) translate(-55,-55)" fill="#999" fill-rule="evenodd" d="M204.6 164.7c1.7 6.6-16.7 4.5-21.2 10.7-4.5 6.2-15.4 2-18 .8s-12.3 2.8-11.4-4c.8-6.7 6.8-7 13-10 6.5-2.7 15.6-12 11-13-21-5.8-28.3-25.7-28.3-25.7-1.3-.2-1-14-6.5-14.5-5.5-.4-8.4 1.6-16.5 0-8-1.6-6.3-6.7-7.6-18-1-11 3.8-7.4 6-11l1-1c-29.5 10.3-51 38.3-51 71v.2c5.8.3 15.8 1.5 16 5.2 1 5.2 0 11.7 4.8 13.6s5.8-7.7 9.7-5c4 2.4 14.3 5 14.3 9.5 0 4.6-2 11.7 0 13s9.7 10.4 9.7 11.7c0 1.3 2.7 8 2 10.4-.8 2-4.2 8.6-7.5 11.6 8 3 17 4.7 26 4.7 41.4 0 75-34 75-75 0-12.5-3-24-8.2-34 .5 7.3.2 14.3 1.8 16.5 7.3 10-17.7 16.8-14 32zM60 150a90 90 0 1 0 180 0 90 90 0 1 0-180 0z"/></svg>